<?xml version="1.0" encoding="UTF-8" standalone="no"?>
<!-- Generator: Gravit.io -->

<svg
   xmlns:dc="http://purl.org/dc/elements/1.1/"
   xmlns:cc="http://creativecommons.org/ns#"
   xmlns:rdf="http://www.w3.org/1999/02/22-rdf-syntax-ns#"
   xmlns:svg="http://www.w3.org/2000/svg"
   xmlns="http://www.w3.org/2000/svg"
   xmlns:sodipodi="http://sodipodi.sourceforge.net/DTD/sodipodi-0.dtd"
   xmlns:inkscape="http://www.inkscape.org/namespaces/inkscape"
   style="isolation:isolate"
   viewBox="0 0 24 48"
   width="24"
   height="48"
   version="1.1"
   id="svg21"
   sodipodi:docname="show_password.svg"
   inkscape:version="0.92.4 (unknown)">
  <metadata
     id="metadata25">
    <rdf:RDF>
      <cc:Work
         rdf:about="">
        <dc:format>image/svg+xml</dc:format>
        <dc:type
           rdf:resource="http://purl.org/dc/dcmitype/StillImage" />
      </cc:Work>
    </rdf:RDF>
  </metadata>
  <sodipodi:namedview
     pagecolor="#ffffff"
     bordercolor="#666666"
     borderopacity="1"
     objecttolerance="10"
     gridtolerance="10"
     guidetolerance="10"
     inkscape:pageopacity="0"
     inkscape:pageshadow="2"
     inkscape:window-width="1920"
     inkscape:window-height="1011"
     id="namedview23"
     showgrid="false"
     inkscape:zoom="2.4583333"
     inkscape:cx="37.901577"
     inkscape:cy="-24.28774"
     inkscape:window-x="0"
     inkscape:window-y="0"
     inkscape:window-maximized="1"
     inkscape:current-layer="svg21" />
  <defs
     id="defs5">
    <clipPath
       id="_clipPath_e5XAghPKYYSn24GgIGqJhTNi3lazPClv">
      <rect
         width="24"
         height="48"
         id="rect2" />
    </clipPath>
  </defs>
  <g
     transform="matrix(0.04898616,0,0,0.04898616,7.34328e-6,24.000007)"
     id="g4749"
     style="fill:#cccccc;fill-opacity:1">
    <g
       id="g4683"
       style="fill:#cccccc;fill-opacity:1">
	<g
   id="g4681"
   style="fill:#cccccc;fill-opacity:1">
		<path
   inkscape:connector-curvature="0"
   d="m 485.967,233.617 c -74,-91 -153.9,-137.2 -237.7,-137.2 -33.2,0 -66.8,7.4 -100,21.9 -26.1,11.5 -52,27.4 -76.9,47.3 -42.1,33.7 -66.9,67.3 -67.9,68.7 -4.8,6.6 -4.6,15.6 0.5,22 73.9,91.1 153.9,137.2 237.7,137.2 33.2,0 66.8,-7.4 100,-21.9 26.1,-11.5 52,-27.4 76.9,-47.3 42.1,-33.7 66.9,-67.3 67.9,-68.7 4.8,-6.6 4.6,-15.6 -0.5,-22 z m -90.7,63.2 c -34.8,27.7 -89.6,60.7 -153.6,60.7 -69.1,0 -136.5,-37.9 -200.5,-112.7 10.1,-11.9 28.6,-31.8 53.4,-51.6 34.8,-27.7 89.6,-60.7 153.6,-60.7 69.1,0 136.5,37.9 200.5,112.7 -10.1,11.9 -28.6,31.9 -53.4,51.6 z"
   id="path4679"
   style="fill:#cccccc;fill-opacity:1" />

	</g>

</g>
    <g
       id="g4689"
       style="fill:#cccccc;fill-opacity:1">
	<g
   id="g4687"
   style="fill:#cccccc;fill-opacity:1">
		<path
   inkscape:connector-curvature="0"
   d="m 311.267,227.017 c -9.9,0 -18,8.1 -18,18 0,26.7 -21.7,48.4 -48.4,48.4 -26.7,0 -48.4,-21.7 -48.4,-48.4 0,-26.7 21.7,-48.4 48.4,-48.4 9.9,0 18,-8.1 18,-18 0,-9.9 -8.1,-18 -18,-18 -46.6,0 -84.4,37.9 -84.4,84.4 0,46.5 37.8,84.4 84.4,84.4 46.6,0 84.4,-37.9 84.4,-84.4 0,-9.9 -8.1,-18 -18,-18 z"
   id="path4685"
   style="fill:#cccccc;fill-opacity:1" />

	</g>

</g>
    <g
       id="g4691"
       style="fill:#cccccc;fill-opacity:1">
</g>
    <g
       id="g4693"
       style="fill:#cccccc;fill-opacity:1">
</g>
    <g
       id="g4695"
       style="fill:#cccccc;fill-opacity:1">
</g>
    <g
       id="g4697"
       style="fill:#cccccc;fill-opacity:1">
</g>
    <g
       id="g4699"
       style="fill:#cccccc;fill-opacity:1">
</g>
    <g
       id="g4701"
       style="fill:#cccccc;fill-opacity:1">
</g>
    <g
       id="g4703"
       style="fill:#cccccc;fill-opacity:1">
</g>
    <g
       id="g4705"
       style="fill:#cccccc;fill-opacity:1">
</g>
    <g
       id="g4707"
       style="fill:#cccccc;fill-opacity:1">
</g>
    <g
       id="g4709"
       style="fill:#cccccc;fill-opacity:1">
</g>
    <g
       id="g4711"
       style="fill:#cccccc;fill-opacity:1">
</g>
    <g
       id="g4713"
       style="fill:#cccccc;fill-opacity:1">
</g>
    <g
       id="g4715"
       style="fill:#cccccc;fill-opacity:1">
</g>
    <g
       id="g4717"
       style="fill:#cccccc;fill-opacity:1">
</g>
    <g
       id="g4719"
       style="fill:#cccccc;fill-opacity:1">
</g>
  </g>
  <g
     id="g5028"
     transform="matrix(0.04897617,0,0,0.04897617,5.75511e-6,-4.8607763e-6)"
     style="fill:#cccccc;fill-opacity:1">
    <g
       id="g4962"
       style="fill:#cccccc;fill-opacity:1">
	<g
   id="g4960"
   style="fill:#cccccc;fill-opacity:1">
		<path
   id="path4958"
   d="m 435.667,54.311 c -7,-7.1 -18.4,-7 -25.5,0 l -64,64 c -79.3,-36 -163.9,-27.2 -244.6,25.5 -60.1,39.2 -96.6,88.5 -98.1,90.6 -4.8,6.6 -4.6,15.6 0.5,22 34.2,42 70,74.7 106.6,97.5 l -56.3,56.3 c -7,7 -7,18.4 0,25.5 3.5,3.5 8.1,5.3 12.7,5.3 4.6,0 9.2,-1.8 12.7,-5.3 l 356,-355.9 c 7,-7 7,-18.4 0,-25.5 z m -235.2,209.7 c -2.6,-5.9 -3.9,-12.3 -3.9,-19 0,-12.9 5,-25.1 14.2,-34.3 14.4,-14.4 35.7,-17.8 53.3,-10.3 z m 90.2,-90.1 c -32.7,-21 -76.8,-17.2 -105.3,11.3 -16,16 -24.7,37.2 -24.7,59.7 0,16.4 4.7,32.1 13.4,45.6 l -37.1,37.1 c -32.5,-18.8 -64.5,-46.6 -95.6,-82.9 13.3,-15.6 41.4,-45.7 79.9,-70.8 66.6,-43.4 132.9,-52.8 197.5,-28.1 z"
   inkscape:connector-curvature="0"
   style="fill:#cccccc;fill-opacity:1" />

	</g>

</g>
    <g
       id="g4968"
       style="fill:#cccccc;fill-opacity:1">
	<g
   id="g4966"
   style="fill:#cccccc;fill-opacity:1">
		<path
   id="path4964"
   d="m 486.067,233.611 c -24.7,-30.4 -50.3,-56 -76.3,-76.3 -7.9,-6.1 -19.2,-4.7 -25.4,3.1 -6.1,7.8 -4.7,19.1 3.1,25.3 20.6,16.1 41.2,36.1 61.2,59.5 -11.8,13.8 -34.8,38.6 -66,61.3 -60.1,43.7 -120.8,59.5 -180.3,46.9 -9.7,-2.1 -19.3,4.2 -21.3,13.9 -2.1,9.7 4.2,19.3 13.9,21.3 15.5,3.3 31.1,4.9 46.8,4.9 23.6,0 47.4,-3.7 71.1,-11.1 31.1,-9.7 62,-25.7 91.9,-47.5 50.4,-36.9 80.5,-77.6 81.8,-79.3 4.8,-6.6 4.6,-15.6 -0.5,-22 z"
   inkscape:connector-curvature="0"
   style="fill:#cccccc;fill-opacity:1" />

	</g>

</g>
    <g
       id="g4970"
       style="fill:#cccccc;fill-opacity:1">
</g>
    <g
       id="g4972"
       style="fill:#cccccc;fill-opacity:1">
</g>
    <g
       id="g4974"
       style="fill:#cccccc;fill-opacity:1">
</g>
    <g
       id="g4976"
       style="fill:#cccccc;fill-opacity:1">
</g>
    <g
       id="g4978"
       style="fill:#cccccc;fill-opacity:1">
</g>
    <g
       id="g4980"
       style="fill:#cccccc;fill-opacity:1">
</g>
    <g
       id="g4982"
       style="fill:#cccccc;fill-opacity:1">
</g>
    <g
       id="g4984"
       style="fill:#cccccc;fill-opacity:1">
</g>
    <g
       id="g4986"
       style="fill:#cccccc;fill-opacity:1">
</g>
    <g
       id="g4988"
       style="fill:#cccccc;fill-opacity:1">
</g>
    <g
       id="g4990"
       style="fill:#cccccc;fill-opacity:1">
</g>
    <g
       id="g4992"
       style="fill:#cccccc;fill-opacity:1">
</g>
    <g
       id="g4994"
       style="fill:#cccccc;fill-opacity:1">
</g>
    <g
       id="g4996"
       style="fill:#cccccc;fill-opacity:1">
</g>
    <g
       id="g4998"
       style="fill:#cccccc;fill-opacity:1">
</g>
  </g>
</svg>
