<?xml version="1.0" standalone="no"?><!-- Generator: Gravit.io --><svg xmlns="http://www.w3.org/2000/svg" xmlns:xlink="http://www.w3.org/1999/xlink" style="isolation:isolate" viewBox="0 0 24 48" width="24" height="48"><defs><clipPath id="_clipPath_e5XAghPKYYSn24GgIGqJhTNi3lazPClv"><rect width="24" height="48"/></clipPath></defs><g clip-path="url(#_clipPath_e5XAghPKYYSn24GgIGqJhTNi3lazPClv)"><g><g><path d=" M 12 4.847 C 7.415 4.847 3.256 7.356 0.188 11.431 C -0.063 11.764 -0.063 12.231 0.188 12.565 C 3.256 16.644 7.415 19.153 12 19.153 C 16.585 19.153 20.744 16.644 23.812 12.569 C 24.063 12.236 24.063 11.769 23.812 11.435 C 20.744 7.356 16.585 4.847 12 4.847 Z  M 12.329 17.037 C 9.285 17.229 6.771 14.72 6.963 11.671 C 7.12 9.157 9.157 7.12 11.671 6.963 C 14.715 6.771 17.229 9.28 17.037 12.329 C 16.875 14.838 14.838 16.875 12.329 17.037 Z  M 12.177 14.71 C 10.537 14.813 9.182 13.463 9.29 11.823 C 9.373 10.468 10.473 9.373 11.828 9.285 C 13.468 9.182 14.823 10.532 14.715 12.172 C 14.627 13.532 13.527 14.627 12.177 14.71 Z " fill="rgb(204,204,204)"/></g></g><g><g><path d=" M 12 28.847 C 7.415 28.847 3.256 31.356 0.188 35.431 C -0.063 35.764 -0.063 36.231 0.188 36.565 C 3.256 40.644 7.415 43.153 12 43.153 C 16.585 43.153 20.744 40.644 23.812 36.569 C 24.063 36.236 24.063 35.769 23.812 35.435 C 20.744 31.356 16.585 28.847 12 28.847 Z  M 12.329 41.037 C 9.285 41.229 6.771 38.72 6.963 35.671 C 7.12 33.157 9.157 31.12 11.671 30.963 C 14.715 30.771 17.229 33.28 17.037 36.329 C 16.875 38.838 14.838 40.875 12.329 41.037 Z  M 12.177 38.71 C 10.537 38.813 9.182 37.463 9.29 35.823 C 9.373 34.468 10.473 33.373 11.828 33.285 C 13.468 33.182 14.823 34.532 14.715 36.172 C 14.627 37.532 13.527 38.627 12.177 38.71 Z " fill="rgb(26,26,26)"/></g></g></g></svg>